<svg width="414" height="896" viewBox="0 0 414 896" fill="none" xmlns="http://www.w3.org/2000/svg">
<g clip-path="url(#clip0_33_1294)">
<rect width="414" height="896" rx="18" fill="white"/>
<g clip-path="url(#clip1_33_1294)">
<rect width="414" height="896" rx="18" fill="white"/>
<g clip-path="url(#clip2_33_1294)">
<rect width="414" height="896" fill="white"/>
<g clip-path="url(#clip3_33_1294)">
<path d="M149.237 157.191C116.215 286.524 -45.9053 161.1 -68.0058 64.9772C-90.1062 -31.1457 -61.2458 -117.74 24.2082 -152.265C109.662 -186.791 179.466 -129.479 217.161 -54.0904C254.855 21.2987 182.258 27.8584 149.237 157.191Z" fill="#BAC8FF"/>
<path d="M405.962 64.9735C463.48 -13.2613 527.361 119.325 527.361 186.372C527.361 253.418 473.009 307.77 405.962 307.77C338.916 307.77 275.716 256.724 284.564 186.372C293.413 116.02 348.445 143.208 405.962 64.9735Z" fill="#152C8D"/>
</g>
</g>
</g>
</g>
<defs>
<clipPath id="clip0_33_1294">
<rect width="414" height="896" rx="18" fill="white"/>
</clipPath>
<clipPath id="clip1_33_1294">
<rect width="414" height="896" rx="18" fill="white"/>
</clipPath>
<clipPath id="clip2_33_1294">
<rect width="414" height="896" fill="white"/>
</clipPath>
<clipPath id="clip3_33_1294">
<rect width="659.329" height="513.444" fill="white" transform="translate(-131.968 -205.674)"/>
</clipPath>
</defs>
</svg>
