<svg width="130" height="130" viewBox="0 0 130 130" fill="none" xmlns="http://www.w3.org/2000/svg">
<path d="M115 65V127.5H15V65M65 127.5V33.75M65 33.75H36.875C32.731 33.75 28.7567 32.1038 25.8265 29.1735C22.8962 26.2433 21.25 22.269 21.25 18.125C21.25 13.981 22.8962 10.0067 25.8265 7.07646C28.7567 4.1462 32.731 2.5 36.875 2.5C58.75 2.5 65 33.75 65 33.75ZM65 33.75H93.125C97.269 33.75 101.243 32.1038 104.174 29.1735C107.104 26.2433 108.75 22.269 108.75 18.125C108.75 13.981 107.104 10.0067 104.174 7.07646C101.243 4.1462 97.269 2.5 93.125 2.5C71.25 2.5 65 33.75 65 33.75ZM2.5 33.75H127.5V65H2.5V33.75Z" stroke="#1E1E1E" stroke-width="4" stroke-linecap="round" stroke-linejoin="round"/>
</svg>
