<svg width="414" height="896" viewBox="0 0 414 896" fill="none" xmlns="http://www.w3.org/2000/svg">
<path d="M549.028 724.322C642.997 855.204 401.009 888.029 295.204 853.651C189.399 819.273 131.497 705.632 165.875 599.827C200.253 494.023 307.407 473.944 406.364 497.583C505.321 521.221 455.059 593.44 549.028 724.322Z" fill="#BAC8FF"/>
<path d="M366.568 379.554C318.769 406.793 316.259 323.447 331.71 288.745C347.16 254.042 387.817 238.436 422.519 253.886C457.221 269.337 472.828 309.993 457.377 344.695C441.927 379.398 414.367 352.315 366.568 379.554Z" fill="#152C8D"/>
<path d="M217.444 253.004C177.585 409.118 -3.10811 244.844 -44.783 141.695C-86.458 38.5462 -36.6233 -78.8569 66.5257 -120.532C169.675 -162.207 253.934 -93.0278 299.434 -2.02775C344.934 88.9723 257.303 96.8903 217.444 253.004Z" fill="#BAC8FF"/>
<path d="M59.4357 -144.547C154.874 -274.362 260.871 -54.3612 260.871 56.8886C260.871 168.138 170.686 258.324 59.4357 258.324C-51.8142 258.324 -142 168.138 -142 56.8886C-142 -54.3612 -36.0024 -14.7325 59.4357 -144.547Z" fill="#152C8D"/>
</svg>
